<?xml version="1.0" encoding="UTF-8"?>
<svg width="108" height="24" viewBox="0 0 108 24" fill="none" xmlns="http://www.w3.org/2000/svg">
  <path d="M11.4 0H0v11.4h11.4V0Z" fill="#F25022"/>
  <path d="M24 0H12.6v11.4H24V0Z" fill="#7FBA00"/>
  <path d="M11.4 12.6H0V24h11.4V12.6Z" fill="#00A4EF"/>
  <path d="M24 12.6H12.6V24H24V12.6Z" fill="#FFB900"/>
  <path d="M44.4 12.48c0-1.56.36-2.82 1.08-3.78.72-.96 1.68-1.44 2.88-1.44.84 0 1.56.3 2.16.9V3h2.04v14.04h-1.86l-.12-1.02c-.66.78-1.44 1.17-2.34 1.17-1.14 0-2.07-.48-2.79-1.44-.72-.96-1.08-2.25-1.08-3.87v-.42h.03Zm2.01.54c0 1.08.21 1.92.63 2.52.42.6.99.9 1.71.9.9 0 1.56-.39 1.98-1.17V10.5c-.42-.78-1.08-1.17-1.98-1.17-.72 0-1.29.3-1.71.9-.42.6-.63 1.5-.63 2.7v.09ZM57.6 7.26c1.26 0 2.25.39 2.97 1.17.72.78 1.08 1.89 1.08 3.33v5.28h-2.01v-5.19c0-.9-.18-1.56-.54-1.98-.36-.42-.9-.63-1.62-.63-.96 0-1.71.45-2.25 1.35v6.45h-2.01V7.41h1.89l.09 1.11c.75-.87 1.71-1.26 2.91-1.26h-.51ZM67.68 15.87c.9 0 1.62-.27 2.16-.81.54-.54.84-1.26.9-2.16h1.92c-.03.78-.27 1.5-.72 2.16-.45.66-1.05 1.2-1.8 1.59-.75.39-1.56.57-2.43.57-1.65 0-2.97-.54-3.96-1.62-.99-1.08-1.47-2.55-1.47-4.41v-.33c0-1.8.48-3.24 1.44-4.32.96-1.08 2.25-1.62 3.87-1.62 1.44 0 2.61.42 3.51 1.26.9.84 1.38 1.95 1.44 3.33h-1.92c-.06-.9-.36-1.62-.9-2.16-.54-.54-1.26-.81-2.16-.81-.99 0-1.77.36-2.34 1.08-.57.72-.84 1.77-.84 3.15v.33c0 1.35.27 2.37.84 3.06.57.69 1.35 1.05 2.34 1.05l.12-.18ZM80.16 15.87c.9 0 1.62-.27 2.16-.81.54-.54.84-1.26.9-2.16h1.92c-.03.78-.27 1.5-.72 2.16-.45.66-1.05 1.2-1.8 1.59-.75.39-1.56.57-2.43.57-1.65 0-2.97-.54-3.96-1.62-.99-1.08-1.47-2.55-1.47-4.41v-.33c0-1.8.48-3.24 1.44-4.32.96-1.08 2.25-1.62 3.87-1.62 1.44 0 2.61.42 3.51 1.26.9.84 1.38 1.95 1.44 3.33h-1.92c-.06-.9-.36-1.62-.9-2.16-.54-.54-1.26-.81-2.16-.81-.99 0-1.77.36-2.34 1.08-.57.72-.84 1.77-.84 3.15v.33c0 1.35.27 2.37.84 3.06.57.69 1.35 1.05 2.34 1.05l.12-.18ZM91.2 16.98c-.15-.3-.24-.69-.27-1.17-.84.93-1.86 1.38-3.06 1.38-.96 0-1.77-.27-2.43-.81-.66-.54-.99-1.23-.99-2.07 0-1.02.39-1.8 1.17-2.34.78-.54 1.89-.81 3.33-.81h1.92v-.9c0-.54-.15-.96-.45-1.26-.3-.3-.75-.45-1.35-.45-.51 0-.93.12-1.26.36-.33.24-.48.57-.48.99h-2.01c0-.48.15-.93.45-1.38.3-.45.72-.81 1.26-1.08.54-.27 1.17-.39 1.86-.39 1.05 0 1.89.27 2.52.81.63.54.96 1.29.99 2.25v4.35c0 .87.12 1.56.36 2.07v.15h-2.04l-.51-.69Zm-2.97-1.53c.45 0 .87-.12 1.26-.33.39-.21.69-.48.9-.81V12.3h-1.56c-1.23 0-1.89.42-1.98 1.26v.15c0 .39.15.69.45.93.3.24.66.36 1.08.36l-.15.45ZM98.16 4.95v2.46h1.71v1.53h-1.71v5.01c0 .36.06.63.18.81.12.18.36.27.72.27.27 0 .51-.03.72-.09v1.59c-.48.15-.96.21-1.44.21-.84 0-1.47-.24-1.89-.72-.42-.48-.63-1.17-.63-2.07v-5.01h-1.62V7.41h1.62V4.95h2.01l.33-.03Z" fill="#1B1B1B"/>
</svg> 