<?xml version="1.0" encoding="UTF-8"?>
<svg width="400" height="300" viewBox="0 0 400 300" xmlns="http://www.w3.org/2000/svg">
  <!-- Background -->
  <rect x="0" y="0" width="400" height="300" fill="#f8f8f8" rx="8" ry="8"/>
  
  <!-- Service Cards -->
  <g transform="translate(20, 20)">
    <!-- Card 1 -->
    <rect x="0" y="0" width="120" height="80" fill="#1d70b8" rx="4" ry="4"/>
    <rect x="10" y="10" width="100" height="10" fill="white" rx="2" ry="2"/>
    <rect x="10" y="30" width="80" height="10" fill="white" rx="2" ry="2"/>
    <rect x="10" y="50" width="60" height="10" fill="white" rx="2" ry="2"/>
    
    <!-- Card 2 -->
    <rect x="140" y="0" width="120" height="80" fill="#00703c" rx="4" ry="4"/>
    <rect x="150" y="10" width="100" height="10" fill="white" rx="2" ry="2"/>
    <rect x="150" y="30" width="80" height="10" fill="white" rx="2" ry="2"/>
    <rect x="150" y="50" width="60" height="10" fill="white" rx="2" ry="2"/>
    
    <!-- Card 3 -->
    <rect x="0" y="100" width="120" height="80" fill="#d4351c" rx="4" ry="4"/>
    <rect x="10" y="110" width="100" height="10" fill="white" rx="2" ry="2"/>
    <rect x="10" y="130" width="80" height="10" fill="white" rx="2" ry="2"/>
    <rect x="10" y="150" width="60" height="10" fill="white" rx="2" ry="2"/>
    
    <!-- Card 4 -->
    <rect x="140" y="100" width="120" height="80" fill="#4c2c92" rx="4" ry="4"/>
    <rect x="150" y="110" width="100" height="10" fill="white" rx="2" ry="2"/>
    <rect x="150" y="130" width="80" height="10" fill="white" rx="2" ry="2"/>
    <rect x="150" y="150" width="60" height="10" fill="white" rx="2" ry="2"/>
  </g>
  
  <!-- Connection Lines -->
  <g stroke="#666" stroke-width="2" fill="none">
    <path d="M140 60 L200 60 L200 100"/>
    <path d="M140 160 L200 160 L200 120"/>
    <path d="M120 100 L120 60"/>
    <path d="M260 100 L260 60"/>
  </g>
</svg> 